<svg xmlns="http://www.w3.org/2000/svg" xmlns:xlink="http://www.w3.org/1999/xlink" width="450" zoomAndPan="magnify" viewBox="295 360 225 85" height="170" preserveAspectRatio="xMidYMid meet" version="1.0"><defs><clipPath id="c304e49f02"><path d="M 358.144531 365.566406 L 404.644531 365.566406 L 404.644531 412.066406 L 358.144531 412.066406 Z M 358.144531 365.566406 " clip-rule="nonzero"/></clipPath><clipPath id="fd46b7dae8"><path d="M 484.648438 401.101562 L 490.5 401.101562 L 490.5 406.949219 L 484.648438 406.949219 Z M 484.648438 401.101562 " clip-rule="nonzero"/></clipPath><clipPath id="b81ff068dc"><path d="M 487.574219 401.101562 C 485.960938 401.101562 484.648438 402.410156 484.648438 404.023438 C 484.648438 405.640625 485.960938 406.949219 487.574219 406.949219 C 489.191406 406.949219 490.5 405.640625 490.5 404.023438 C 490.5 402.410156 489.191406 401.101562 487.574219 401.101562 Z M 487.574219 401.101562 " clip-rule="nonzero"/></clipPath><clipPath id="92e1dfba2c"><path d="M 0.648438 0.101562 L 6.5 0.101562 L 6.5 5.949219 L 0.648438 5.949219 Z M 0.648438 0.101562 " clip-rule="nonzero"/></clipPath><clipPath id="47e78c0d62"><path d="M 3.574219 0.101562 C 1.960938 0.101562 0.648438 1.410156 0.648438 3.023438 C 0.648438 4.640625 1.960938 5.949219 3.574219 5.949219 C 5.191406 5.949219 6.5 4.640625 6.5 3.023438 C 6.5 1.410156 5.191406 0.101562 3.574219 0.101562 Z M 3.574219 0.101562 " clip-rule="nonzero"/></clipPath><clipPath id="9c8ec9f50b"><rect x="0" width="7" y="0" height="6"/></clipPath></defs><path fill="#000000" d="M 319.410156 365.746094 C 318.210938 366 315.835938 366.886719 314.191406 367.675781 C 311.597656 368.910156 310.773438 369.542969 308.148438 372.171875 C 305.648438 374.667969 304.890625 375.683594 303.8125 377.898438 C 301.882812 381.820312 301.375 384.003906 301.375 388.65625 C 301.375 393.210938 301.757812 395.015625 303.402344 398.621094 C 305.710938 403.558594 310.269531 408.113281 315.046875 410.234375 C 319.0625 411.972656 320.359375 412.164062 330.738281 412.320312 L 340.453125 412.449219 L 340.453125 407.007812 L 331.246094 407.007812 C 323.875 407.007812 321.660156 406.910156 320.078125 406.5 C 312.039062 404.445312 306.28125 397.101562 306.28125 388.90625 C 306.28125 385.648438 306.722656 383.625 308.210938 380.460938 C 310.425781 375.714844 315.015625 372.011719 320.234375 370.777344 C 321.785156 370.429688 324.378906 370.304688 331.371094 370.304688 L 340.453125 370.304688 L 340.453125 365.242188 L 331.054688 365.273438 C 324.0625 365.273438 321.058594 365.398438 319.410156 365.746094 Z M 319.410156 365.746094 " fill-opacity="1" fill-rule="nonzero"/><path fill="#000000" d="M 378.738281 365.589844 C 376.332031 365.84375 372.917969 366.886719 372.15625 367.613281 C 371.808594 367.929688 371.902344 368.375 372.695312 370.113281 L 373.644531 372.203125 L 375.257812 371.570312 C 376.144531 371.222656 377.664062 370.839844 378.675781 370.714844 C 379.65625 370.621094 380.289062 370.460938 380.066406 370.367188 C 379.878906 370.304688 379.6875 369.890625 379.6875 369.480469 C 379.6875 368.941406 379.8125 368.753906 380.066406 368.910156 C 380.320312 369.070312 380.351562 368.972656 380.195312 368.5625 C 380.066406 368.214844 380.128906 367.867188 380.382812 367.707031 C 380.636719 367.550781 380.414062 367.457031 379.75 367.457031 C 379.179688 367.457031 378.769531 367.328125 378.863281 367.203125 C 378.960938 367.042969 378.832031 366.917969 378.578125 366.917969 C 378.328125 366.917969 378.199219 367.011719 378.261719 367.140625 C 378.328125 367.234375 377.21875 367.328125 375.796875 367.359375 L 373.199219 367.359375 L 375.097656 366.757812 C 376.144531 366.410156 378.167969 366.0625 379.59375 365.96875 C 381.015625 365.875 382.125 365.652344 382.027344 365.527344 C 381.933594 365.367188 381.679688 365.273438 381.492188 365.273438 C 381.269531 365.304688 380.035156 365.429688 378.738281 365.589844 Z M 373.359375 369.671875 C 374.085938 371.0625 374.214844 371.726562 373.582031 370.777344 C 373.042969 369.957031 372.378906 368.40625 372.566406 368.40625 C 372.664062 368.40625 373.011719 368.972656 373.359375 369.671875 Z M 374.625 369.828125 C 374.625 369.988281 374.464844 369.921875 374.308594 369.671875 C 374.148438 369.417969 373.992188 369.039062 373.992188 368.878906 C 373.992188 368.691406 374.148438 368.785156 374.308594 369.039062 C 374.464844 369.289062 374.625 369.640625 374.625 369.828125 Z M 377.789062 370.460938 C 376.839844 370.652344 375.699219 370.9375 375.257812 371.03125 C 374.816406 371.15625 374.65625 371.15625 374.878906 371.0625 C 375.066406 370.96875 375.195312 370.746094 375.066406 370.589844 C 374.910156 370.304688 375.320312 370.175781 376.300781 370.273438 C 376.585938 370.304688 376.839844 370.207031 376.839844 370.082031 C 376.839844 369.921875 377.441406 369.859375 378.199219 369.957031 L 379.527344 370.082031 Z M 377.789062 370.460938 " fill-opacity="1" fill-rule="nonzero"/><path fill="#000000" d="M 417.339844 367.613281 L 417.339844 369.988281 L 427.242188 369.988281 C 437.875 369.988281 440.53125 370.238281 442.492188 371.410156 C 448.441406 374.921875 449.011719 383.371094 443.539062 387.292969 C 441.070312 389.066406 439.613281 389.289062 430.851562 389.289062 L 422.972656 389.289062 L 434.300781 400.835938 L 445.59375 412.386719 L 449.042969 412.386719 C 450.910156 412.386719 452.460938 412.289062 452.460938 412.132812 C 452.460938 412.003906 448.539062 407.988281 443.757812 403.210938 C 438.980469 398.433594 435.058594 394.445312 435.058594 394.351562 C 435.058594 394.253906 435.691406 394.222656 436.480469 394.285156 C 438.601562 394.476562 442.050781 393.78125 444.234375 392.738281 C 446.734375 391.566406 449.804688 388.496094 451.003906 386.027344 C 453.566406 380.808594 452.554688 373.972656 448.601562 369.796875 C 446.640625 367.742188 444.960938 366.664062 442.304688 365.84375 C 440.5625 365.304688 439.265625 365.242188 428.855469 365.242188 L 417.339844 365.242188 Z M 417.339844 367.613281 " fill-opacity="1" fill-rule="nonzero"/><path fill="#000000" d="M 484.101562 367.960938 C 483.40625 369.480469 482.835938 370.746094 482.835938 370.808594 C 482.835938 370.871094 472.234375 394.160156 470.019531 398.9375 C 469.355469 400.332031 467.742188 403.9375 466.382812 406.941406 L 463.882812 412.417969 L 466.921875 412.320312 L 469.925781 412.226562 L 473.945312 403.367188 C 476.160156 398.496094 480.144531 389.636719 482.835938 383.6875 C 485.523438 377.707031 487.835938 372.960938 487.960938 373.085938 C 488.121094 373.246094 490.746094 379.035156 493.878906 385.996094 C 496.980469 392.925781 500.902344 401.722656 502.609375 405.488281 L 505.679688 412.386719 L 508.65625 412.386719 C 510.300781 412.386719 511.628906 412.355469 511.628906 412.289062 C 511.628906 412.226562 511.34375 411.625 511.027344 410.929688 C 510.300781 409.410156 493.59375 372.644531 491.664062 368.308594 L 490.304688 365.242188 L 485.367188 365.242188 Z M 484.101562 367.960938 " fill-opacity="1" fill-rule="nonzero"/><path fill="#000000" d="M 384.75 365.875 C 385.699219 366 386.933594 366.191406 387.4375 366.316406 C 388.070312 366.441406 387.976562 366.347656 387.121094 366.0625 C 386.425781 365.808594 385.222656 365.621094 384.433594 365.621094 L 383.007812 365.652344 Z M 384.75 365.875 " fill-opacity="1" fill-rule="nonzero"/><path fill="#000000" d="M 388.863281 366.757812 C 389.117188 366.917969 389.6875 367.171875 390.128906 367.265625 C 390.667969 367.425781 390.761719 367.390625 390.445312 367.203125 C 390.191406 367.042969 389.621094 366.792969 389.179688 366.695312 C 388.640625 366.539062 388.546875 366.570312 388.863281 366.757812 Z M 388.863281 366.757812 " fill-opacity="1" fill-rule="nonzero"/><path fill="#000000" d="M 381.425781 367.707031 C 381.871094 367.992188 381.996094 369.671875 381.585938 369.671875 C 381.425781 369.671875 381.363281 369.480469 381.460938 369.226562 C 381.554688 368.972656 381.363281 368.625 381.015625 368.4375 C 380.476562 368.152344 380.414062 368.183594 380.542969 368.722656 C 380.636719 369.132812 380.542969 369.355469 380.289062 369.386719 C 379.75 369.386719 381.144531 370.050781 382.058594 370.175781 C 382.410156 370.238281 383.136719 370.175781 383.640625 370.019531 L 384.589844 369.734375 L 383.453125 369.703125 C 382.660156 369.671875 382.3125 369.511719 382.3125 369.195312 C 382.3125 368.941406 382.472656 368.722656 382.660156 368.722656 C 382.851562 368.722656 382.789062 368.5625 382.535156 368.40625 C 382.28125 368.246094 382.21875 368.089844 382.375 368.089844 C 382.566406 368.089844 382.472656 367.929688 382.21875 367.773438 C 381.648438 367.425781 380.921875 367.328125 381.425781 367.707031 Z M 381.425781 367.707031 " fill-opacity="1" fill-rule="nonzero"/><path fill="#000000" d="M 391.109375 367.550781 C 391.648438 367.992188 393.609375 369.070312 393.609375 368.941406 C 393.609375 368.722656 391.550781 367.457031 391.234375 367.457031 C 391.078125 367.457031 391.046875 367.488281 391.109375 367.550781 Z M 391.109375 367.550781 " fill-opacity="1" fill-rule="nonzero"/><path fill="#000000" d="M 384.339844 368.214844 C 384.242188 368.46875 384.339844 368.753906 384.558594 368.816406 C 384.875 368.941406 384.941406 368.785156 384.84375 368.375 C 384.65625 367.644531 384.558594 367.613281 384.339844 368.214844 Z M 384.339844 368.214844 " fill-opacity="1" fill-rule="nonzero"/><path fill="#000000" d="M 383.105469 369.257812 C 383.324219 369.355469 383.609375 369.324219 383.707031 369.226562 C 383.832031 369.132812 383.640625 369.039062 383.292969 369.070312 C 382.945312 369.070312 382.851562 369.164062 383.105469 369.257812 Z M 383.105469 369.257812 " fill-opacity="1" fill-rule="nonzero"/><path fill="#000000" d="M 385.574219 370.9375 C 386.839844 371.253906 388.578125 371.886719 389.464844 372.328125 C 390.351562 372.804688 391.078125 373.085938 391.078125 372.992188 C 391.078125 372.421875 385.382812 370.273438 383.992188 370.335938 C 383.609375 370.335938 384.339844 370.621094 385.574219 370.9375 Z M 385.574219 370.9375 " fill-opacity="1" fill-rule="nonzero"/><path fill="#000000" d="M 397.722656 372.265625 C 399.019531 373.6875 399.304688 373.941406 399.304688 373.6875 C 399.304688 373.625 398.640625 372.960938 397.816406 372.203125 L 396.296875 370.777344 Z M 397.722656 372.265625 " fill-opacity="1" fill-rule="nonzero"/><path fill="#000000" d="M 392.722656 374.386719 C 393.546875 375.113281 394.78125 376.378906 395.507812 377.167969 C 396.203125 377.960938 396.773438 378.5 396.773438 378.371094 C 396.773438 378.023438 392.597656 373.785156 391.867188 373.402344 C 391.519531 373.214844 391.902344 373.65625 392.722656 374.386719 Z M 392.722656 374.386719 " fill-opacity="1" fill-rule="nonzero"/><path fill="#000000" d="M 360.988281 376.503906 C 358.582031 379.984375 357.414062 384.226562 357.414062 389.289062 C 357.378906 392.199219 357.539062 393.402344 358.140625 395.300781 C 360.542969 403.113281 366.175781 408.777344 374.148438 411.46875 C 376.082031 412.132812 376.964844 412.226562 380.953125 412.226562 C 384.90625 412.226562 385.890625 412.132812 388.007812 411.46875 C 389.371094 411.054688 390.539062 410.582031 390.636719 410.457031 C 390.730469 410.296875 390.570312 410.265625 390.285156 410.359375 C 389.75 410.582031 388.769531 409.917969 389.054688 409.507812 C 389.148438 409.347656 389.054688 409.222656 388.894531 409.222656 C 388.703125 409.222656 388.546875 409.378906 388.546875 409.570312 C 388.546875 409.757812 388.324219 409.824219 388.039062 409.726562 C 387.722656 409.601562 387.628906 409.664062 387.789062 409.949219 C 387.914062 410.171875 387.882812 410.234375 387.722656 410.074219 C 387.4375 409.789062 387.375 409.632812 387.3125 408.652344 C 387.28125 408.019531 387.058594 407.957031 384.273438 407.925781 L 382.375 407.925781 L 384.273438 407.480469 C 386.207031 407.070312 388.007812 406.4375 387.4375 406.40625 C 387.28125 406.375 386.332031 406.59375 385.382812 406.847656 C 381.648438 407.859375 376.363281 407.257812 372.757812 405.425781 C 370.480469 404.285156 367.347656 401.722656 366.050781 399.949219 C 365.511719 399.222656 364.941406 398.652344 364.753906 398.714844 C 364.59375 398.75 364.53125 398.652344 364.625 398.496094 C 364.722656 398.335938 364.46875 397.417969 364.023438 396.46875 C 361.683594 391.40625 361.9375 385.523438 364.65625 380.554688 L 365.703125 378.625 L 363.867188 376.789062 L 362.03125 374.984375 Z M 363.011719 376.566406 C 363.742188 377.328125 363.773438 377.453125 363.265625 377.453125 C 362.949219 377.453125 362.726562 377.296875 362.824219 377.074219 C 362.886719 376.882812 362.726562 376.535156 362.441406 376.316406 C 362.03125 375.96875 361.96875 376.03125 361.96875 376.726562 C 361.96875 377.234375 361.746094 377.550781 361.335938 377.675781 C 360.988281 377.769531 360.703125 377.769531 360.703125 377.675781 C 360.703125 377.515625 361.96875 375.683594 362.09375 375.683594 C 362.125 375.683594 362.539062 376.09375 363.011719 376.566406 Z M 365.226562 379.066406 C 364.972656 379.730469 364.59375 379.542969 364.4375 378.71875 C 364.308594 378.054688 364.339844 377.992188 364.847656 378.308594 C 365.132812 378.5 365.324219 378.847656 365.226562 379.066406 Z M 360.324219 379.195312 C 360.132812 379.699219 359.945312 380.082031 359.878906 380.015625 C 359.722656 379.859375 360.292969 378.214844 360.511719 378.214844 C 360.609375 378.214844 360.511719 378.65625 360.324219 379.195312 Z M 363.488281 381.914062 C 363.140625 382.769531 362.792969 383.464844 362.757812 383.496094 C 362.726562 383.5625 362.695312 383.179688 362.695312 382.644531 C 362.695312 382.136719 362.792969 381.789062 362.917969 381.851562 C 363.042969 381.914062 363.296875 381.628906 363.488281 381.21875 C 363.707031 380.777344 363.929688 380.429688 363.992188 380.429688 C 364.089844 380.429688 363.867188 381.09375 363.488281 381.914062 Z M 362.347656 384.921875 C 362.09375 385.175781 362.0625 385.046875 362.191406 384.511719 C 362.316406 384.097656 362.441406 383.941406 362.539062 384.195312 C 362.601562 384.414062 362.507812 384.761719 362.347656 384.921875 Z M 358.078125 387.453125 C 358.011719 387.863281 357.949219 387.546875 357.949219 386.757812 C 357.949219 385.964844 358.011719 385.648438 358.078125 386.027344 C 358.140625 386.441406 358.140625 387.074219 358.078125 387.453125 Z M 361.875 388.085938 C 361.777344 388.339844 361.683594 388.242188 361.683594 387.894531 C 361.652344 387.546875 361.746094 387.359375 361.84375 387.484375 C 361.9375 387.578125 361.96875 387.863281 361.875 388.085938 Z M 358.078125 391.722656 C 357.980469 392.039062 357.917969 391.851562 357.917969 391.34375 C 357.917969 390.804688 357.980469 390.585938 358.078125 390.773438 C 358.140625 390.996094 358.140625 391.4375 358.078125 391.722656 Z M 362.191406 392.199219 C 362.09375 392.453125 362 392.355469 362 392.007812 C 361.96875 391.660156 362.0625 391.472656 362.160156 391.597656 C 362.253906 391.691406 362.285156 391.976562 362.191406 392.199219 Z M 365.449219 399.730469 C 365.640625 400.078125 365.703125 400.363281 365.640625 400.363281 C 365.542969 400.363281 365.324219 400.078125 365.132812 399.730469 C 364.941406 399.382812 364.878906 399.097656 364.941406 399.097656 C 365.039062 399.097656 365.257812 399.382812 365.449219 399.730469 Z M 367.695312 402.480469 C 368.105469 402.988281 368.074219 403.019531 367.601562 402.609375 C 367.285156 402.386719 367.03125 402.132812 367.03125 402.070312 C 367.03125 401.816406 367.285156 401.976562 367.695312 402.480469 Z M 375.605469 407.257812 C 375.382812 407.324219 375.035156 407.226562 374.878906 407.070312 C 374.625 406.816406 374.75 406.785156 375.289062 406.910156 C 375.699219 407.039062 375.859375 407.164062 375.605469 407.257812 Z M 377.472656 407.511719 C 377.472656 407.765625 376.871094 407.925781 376.714844 407.703125 C 376.617188 407.542969 376.746094 407.417969 376.996094 407.417969 C 377.25 407.417969 377.472656 407.480469 377.472656 407.511719 Z M 389.054688 410.550781 C 389.273438 410.773438 387.566406 411.339844 386.015625 411.5625 C 382.757812 412.039062 382.21875 412.070312 382.21875 411.753906 C 382.21875 411.59375 382.441406 411.53125 382.691406 411.625 C 382.945312 411.753906 383.167969 411.6875 383.167969 411.5 C 383.167969 411.339844 383.546875 411.214844 384.054688 411.246094 C 384.527344 411.277344 384.875 411.121094 384.84375 410.929688 C 384.8125 410.738281 385.222656 410.644531 385.855469 410.675781 C 386.457031 410.738281 386.996094 410.675781 387.089844 410.550781 C 387.25 410.265625 388.769531 410.296875 389.054688 410.550781 Z M 377.757812 411.625 C 378.042969 411.878906 376.015625 411.6875 375.414062 411.4375 C 375.003906 411.246094 375.257812 411.214844 376.207031 411.339844 C 376.996094 411.4375 377.695312 411.5625 377.757812 411.625 Z M 381.207031 411.972656 C 380.730469 412.039062 379.878906 412.039062 379.308594 411.972656 C 378.738281 411.910156 379.117188 411.847656 380.160156 411.847656 C 381.207031 411.847656 381.679688 411.910156 381.207031 411.972656 Z M 381.207031 411.972656 " fill-opacity="1" fill-rule="nonzero"/><path fill="#000000" d="M 485.96875 401.785156 C 483.308594 403.210938 484.609375 407.324219 487.707031 407.324219 C 488.152344 407.324219 488.972656 406.910156 489.542969 406.40625 C 490.335938 405.710938 490.554688 405.265625 490.554688 404.316406 C 490.554688 403.367188 490.335938 402.925781 489.542969 402.230469 C 488.40625 401.214844 487.265625 401.089844 485.96875 401.785156 Z M 488.972656 402.324219 C 490.113281 402.828125 490.429688 404.539062 489.574219 405.675781 C 488.753906 406.785156 487.074219 406.976562 486.03125 406.058594 C 485.621094 405.710938 485.429688 405.425781 485.589844 405.425781 C 485.777344 405.425781 486.09375 405.644531 486.316406 405.929688 C 486.917969 406.625 489.039062 406.40625 488.972656 405.675781 C 488.941406 405.359375 489.039062 405.171875 489.164062 405.265625 C 489.289062 405.359375 489.511719 405.171875 489.636719 404.886719 C 489.765625 404.507812 489.574219 404.128906 489.101562 403.714844 C 488.46875 403.179688 488.46875 403.144531 489.003906 403.335938 C 489.574219 403.558594 489.574219 403.527344 488.941406 402.925781 C 488.214844 402.230469 486.824219 402.039062 486.472656 402.578125 C 486.378906 402.734375 486.03125 402.894531 485.746094 402.894531 C 485.273438 402.863281 485.273438 402.828125 485.808594 402.417969 C 486.570312 401.847656 487.898438 401.816406 488.972656 402.324219 Z M 488.972656 402.324219 " fill-opacity="1" fill-rule="nonzero"/><path fill="#000000" d="M 388.800781 406.277344 C 388.957031 406.59375 389.402344 407.542969 389.78125 408.367188 C 390.191406 409.222656 390.570312 409.855469 390.636719 409.757812 C 390.824219 409.570312 388.957031 405.742188 388.703125 405.742188 C 388.609375 405.742188 388.640625 405.992188 388.800781 406.277344 Z M 388.800781 406.277344 " fill-opacity="1" fill-rule="nonzero"/><path fill="#000000" d="M 341.625 432.507812 C 341.023438 433.109375 341.433594 434.21875 342.445312 434.722656 C 344.058594 435.546875 344.3125 435.832031 343.902344 436.304688 C 343.425781 436.875 342.542969 436.875 342.035156 436.273438 C 341.8125 436.019531 341.496094 435.894531 341.339844 435.988281 C 340.800781 436.304688 342.097656 437.382812 343.015625 437.382812 C 344.027344 437.382812 345.007812 436.210938 344.722656 435.417969 C 344.597656 435.136719 343.964844 434.722656 343.269531 434.4375 C 342.003906 433.933594 341.65625 433.171875 342.542969 432.824219 C 342.792969 432.730469 343.394531 432.886719 343.839844 433.171875 C 344.597656 433.679688 344.628906 433.679688 344.535156 433.078125 C 344.441406 432.636719 344.089844 432.445312 343.140625 432.382812 C 342.414062 432.320312 341.75 432.382812 341.625 432.507812 Z M 341.625 432.507812 " fill-opacity="1" fill-rule="nonzero"/><path fill="#000000" d="M 350.007812 432.539062 C 349.785156 432.636719 349.40625 433.109375 349.121094 433.648438 C 348.238281 435.355469 349.4375 437.351562 351.367188 437.351562 C 352.507812 437.351562 353.300781 436.8125 353.710938 435.703125 C 354.121094 434.691406 353.617188 433.078125 352.792969 432.636719 C 352.160156 432.320312 350.703125 432.253906 350.007812 432.539062 Z M 352.792969 433.585938 C 353.140625 433.933594 353.425781 434.503906 353.425781 434.851562 C 353.425781 435.734375 352.316406 436.75 351.367188 436.75 C 350.484375 436.75 349.3125 435.640625 349.3125 434.785156 C 349.3125 433.964844 350.453125 432.953125 351.367188 432.953125 C 351.8125 432.953125 352.445312 433.238281 352.792969 433.585938 Z M 352.792969 433.585938 " fill-opacity="1" fill-rule="nonzero"/><path fill="#000000" d="M 358.171875 434.851562 L 358.171875 437.382812 L 359.59375 437.382812 C 360.386719 437.382812 361.019531 437.222656 361.019531 437.066406 C 361.019531 436.875 360.511719 436.75 359.910156 436.75 L 358.804688 436.75 L 358.804688 434.535156 C 358.804688 433.269531 358.679688 432.320312 358.488281 432.320312 C 358.296875 432.320312 358.171875 433.363281 358.171875 434.851562 Z M 358.171875 434.851562 " fill-opacity="1" fill-rule="nonzero"/><path fill="#000000" d="M 365.449219 434.3125 C 365.449219 436.558594 365.988281 437.382812 367.441406 437.382812 C 368.644531 437.382812 369.246094 436.304688 369.246094 434.152344 C 369.246094 431.71875 368.675781 431.8125 368.550781 434.25 C 368.453125 436.433594 367.855469 437.222656 366.808594 436.558594 C 366.398438 436.304688 366.207031 435.703125 366.144531 434.25 C 366.019531 431.6875 365.449219 431.75 365.449219 434.3125 Z M 365.449219 434.3125 " fill-opacity="1" fill-rule="nonzero"/><path fill="#000000" d="M 374.65625 433.078125 C 373.582031 434.21875 373.832031 436.050781 375.164062 436.90625 C 375.730469 437.253906 376.175781 437.730469 376.207031 437.917969 C 376.207031 438.457031 376.839844 438.457031 376.839844 437.917969 C 376.839844 437.730469 377.28125 437.351562 377.789062 437.128906 C 378.328125 436.875 378.738281 436.558594 378.738281 436.367188 C 378.738281 436.179688 378.515625 436.148438 378.199219 436.273438 C 376.777344 436.90625 375.667969 436.8125 375.132812 436.085938 C 374.464844 435.101562 374.5 434.121094 375.195312 433.488281 C 375.859375 432.886719 377.3125 432.761719 377.628906 433.269531 C 377.757812 433.457031 377.980469 433.488281 378.167969 433.394531 C 378.707031 433.046875 377.472656 432.320312 376.363281 432.320312 C 375.730469 432.320312 375.097656 432.605469 374.65625 433.078125 Z M 374.65625 433.078125 " fill-opacity="1" fill-rule="nonzero"/><path fill="#000000" d="M 383.800781 432.953125 C 382.820312 433.933594 382.660156 435.101562 383.390625 436.050781 C 385.066406 438.332031 388.230469 437.316406 388.230469 434.535156 C 388.230469 432.699219 385.160156 431.589844 383.800781 432.953125 Z M 387.15625 433.773438 C 388.355469 435.609375 386.269531 437.539062 384.496094 436.210938 C 383.453125 435.417969 383.292969 434.722656 383.925781 433.742188 C 384.65625 432.605469 386.425781 432.636719 387.15625 433.773438 Z M 387.15625 433.773438 " fill-opacity="1" fill-rule="nonzero"/><path fill="#000000" d="M 392.785156 433.964844 C 392.882812 434.882812 392.976562 436.019531 392.976562 436.496094 C 392.976562 437.351562 393.039062 437.382812 394.558594 437.382812 C 396.457031 437.382812 396.679688 436.8125 394.8125 436.683594 C 393.734375 436.621094 393.484375 436.464844 393.417969 435.863281 C 393.292969 435.230469 393.417969 435.167969 394.558594 435.167969 C 395.253906 435.167969 395.824219 435.007812 395.824219 434.851562 C 395.824219 434.660156 395.253906 434.535156 394.558594 434.535156 C 393.417969 434.535156 393.292969 434.4375 393.292969 433.742188 C 393.292969 433.015625 393.417969 432.953125 394.714844 432.953125 C 395.507812 432.953125 396.140625 432.792969 396.140625 432.636719 C 396.140625 432.445312 395.347656 432.320312 394.367188 432.320312 L 392.566406 432.320312 Z M 392.785156 433.964844 " fill-opacity="1" fill-rule="nonzero"/><path fill="#000000" d="M 400.632812 432.605469 C 399.777344 433.140625 400.347656 434.34375 401.773438 434.976562 C 402.660156 435.386719 403.101562 435.769531 403.039062 436.085938 C 402.878906 436.8125 401.488281 436.90625 400.980469 436.242188 C 400.476562 435.546875 400 435.957031 400.445312 436.683594 C 400.917969 437.414062 403.070312 437.414062 403.542969 436.652344 C 404.019531 435.925781 403.511719 435.167969 402.121094 434.503906 C 401.519531 434.21875 401.042969 433.773438 401.042969 433.554688 C 401.042969 432.953125 402.375 432.792969 403.007812 433.300781 C 403.417969 433.648438 403.480469 433.617188 403.386719 433.109375 C 403.292969 432.636719 402.976562 432.445312 402.152344 432.382812 C 401.550781 432.351562 400.855469 432.445312 400.632812 432.605469 Z M 400.632812 432.605469 " fill-opacity="1" fill-rule="nonzero"/><path fill="#000000" d="M 413.859375 434.851562 L 413.859375 437.382812 L 415.09375 437.382812 C 417.246094 437.382812 418.796875 435.453125 417.941406 433.804688 C 417.339844 432.699219 416.644531 432.351562 415.21875 432.320312 L 413.859375 432.320312 Z M 416.800781 433.519531 C 418.003906 434.597656 417.085938 436.75 415.378906 436.75 C 414.492188 436.75 414.492188 436.75 414.492188 434.691406 L 414.492188 432.636719 L 415.378906 432.824219 C 415.851562 432.953125 416.484375 433.269531 416.800781 433.519531 Z M 416.800781 433.519531 " fill-opacity="1" fill-rule="nonzero"/><path fill="#000000" d="M 422.402344 434.851562 C 422.402344 436.335938 422.527344 437.382812 422.71875 437.382812 C 422.910156 437.382812 423.035156 436.335938 423.035156 434.851562 C 423.035156 433.363281 422.910156 432.320312 422.71875 432.320312 C 422.527344 432.320312 422.402344 433.363281 422.402344 434.851562 Z M 422.402344 434.851562 " fill-opacity="1" fill-rule="nonzero"/><path fill="#000000" d="M 428.570312 433.109375 C 428.066406 433.585938 427.78125 434.25 427.78125 434.851562 C 427.78125 437.035156 430.660156 438.234375 432.148438 436.652344 C 433.160156 435.578125 433.066406 434.851562 431.894531 434.851562 C 431.386719 434.851562 430.945312 434.976562 430.945312 435.167969 C 430.945312 435.324219 431.167969 435.386719 431.417969 435.292969 C 431.988281 435.070312 432.050781 435.832031 431.515625 436.367188 C 430.535156 437.351562 428.414062 436.242188 428.414062 434.753906 C 428.414062 434.34375 428.667969 433.773438 428.984375 433.488281 C 429.679688 432.855469 431.292969 432.792969 431.832031 433.332031 C 432.117188 433.617188 432.210938 433.585938 432.210938 433.203125 C 432.210938 432.066406 429.679688 431.972656 428.570312 433.109375 Z M 428.570312 433.109375 " fill-opacity="1" fill-rule="nonzero"/><path fill="#000000" d="M 436.957031 434.851562 C 436.957031 436.875 437.050781 437.382812 437.429688 437.382812 C 437.8125 437.382812 437.90625 436.875 437.90625 434.851562 C 437.90625 432.824219 437.8125 432.320312 437.429688 432.320312 C 437.050781 432.320312 436.957031 432.824219 436.957031 434.851562 Z M 436.957031 434.851562 " fill-opacity="1" fill-rule="nonzero"/><path fill="#000000" d="M 442.492188 432.636719 C 442.589844 432.792969 442.96875 432.953125 443.316406 432.953125 C 443.855469 432.953125 443.917969 433.171875 443.917969 435.167969 C 443.917969 436.433594 444.042969 437.382812 444.234375 437.382812 C 444.425781 437.382812 444.550781 436.433594 444.550781 435.167969 C 444.550781 433.015625 444.582031 432.953125 445.339844 432.953125 C 445.785156 432.953125 446.132812 432.792969 446.132812 432.636719 C 446.132812 432.445312 445.277344 432.320312 444.203125 432.320312 C 443.03125 432.320312 442.367188 432.445312 442.492188 432.636719 Z M 442.492188 432.636719 " fill-opacity="1" fill-rule="nonzero"/><path fill="#000000" d="M 450.625 434.566406 C 450.054688 435.800781 449.613281 436.96875 449.613281 437.097656 C 449.613281 437.632812 450.214844 437.382812 450.402344 436.75 C 450.5625 436.273438 450.878906 436.117188 451.828125 436.117188 C 452.777344 436.117188 453.09375 436.273438 453.25 436.75 C 453.347656 437.097656 453.632812 437.382812 453.882812 437.382812 C 454.167969 437.382812 453.980469 436.652344 453.21875 434.945312 C 452.652344 433.585938 452.050781 432.445312 451.890625 432.382812 C 451.734375 432.351562 451.164062 433.332031 450.625 434.566406 Z M 452.398438 434.34375 C 452.777344 435.230469 452.617188 435.484375 451.636719 435.484375 C 450.972656 435.484375 450.941406 435.417969 451.226562 434.535156 C 451.636719 433.394531 451.921875 433.332031 452.398438 434.34375 Z M 452.398438 434.34375 " fill-opacity="1" fill-rule="nonzero"/><path fill="#000000" d="M 458.472656 434.851562 C 458.472656 436.335938 458.597656 437.382812 458.789062 437.382812 C 458.980469 437.382812 459.105469 436.335938 459.105469 434.851562 C 459.105469 433.363281 458.980469 432.320312 458.789062 432.320312 C 458.597656 432.320312 458.472656 433.363281 458.472656 434.851562 Z M 458.472656 434.851562 " fill-opacity="1" fill-rule="nonzero"/><path fill="#000000" d="M 463.882812 432.855469 C 463.441406 433.710938 464.007812 434.46875 465.464844 435.070312 C 466.320312 435.386719 466.699219 435.734375 466.636719 436.085938 C 466.507812 436.78125 465.179688 436.90625 464.515625 436.304688 C 463.789062 435.640625 463.375 436.050781 464.074219 436.8125 C 465.023438 437.855469 467.332031 437.253906 467.332031 435.988281 C 467.332031 435.417969 466.382812 434.660156 465.339844 434.40625 C 464.707031 434.25 464.484375 434.027344 464.546875 433.648438 C 464.675781 432.984375 465.941406 432.761719 466.605469 433.300781 C 467.015625 433.648438 467.078125 433.617188 466.984375 433.109375 C 466.792969 432.222656 464.359375 432.035156 463.882812 432.855469 Z M 463.882812 432.855469 " fill-opacity="1" fill-rule="nonzero"/><g clip-path="url(#c304e49f02)"><path fill="#000000" d="M 381.394531 365.566406 C 368.550781 365.566406 358.144531 375.972656 358.144531 388.816406 C 358.144531 401.664062 368.550781 412.066406 381.394531 412.066406 C 394.242188 412.066406 404.644531 401.664062 404.644531 388.816406 C 404.644531 375.972656 394.242188 365.566406 381.394531 365.566406 Z M 381.394531 407.417969 C 371.140625 407.417969 362.796875 399.070312 362.796875 388.816406 C 362.796875 378.566406 371.140625 370.21875 381.394531 370.21875 C 391.648438 370.21875 399.996094 378.566406 399.996094 388.816406 C 399.996094 399.070312 391.648438 407.417969 381.394531 407.417969 Z M 381.394531 407.417969 " fill-opacity="1" fill-rule="nonzero"/></g><g clip-path="url(#fd46b7dae8)"><g clip-path="url(#b81ff068dc)"><g transform="matrix(1, 0, 0, 1, 484, 401)"><g clip-path="url(#9c8ec9f50b)"><g clip-path="url(#92e1dfba2c)"><g clip-path="url(#47e78c0d62)"><path fill="#000000" d="M 0.648438 0.101562 L 6.5 0.101562 L 6.5 5.949219 L 0.648438 5.949219 Z M 0.648438 0.101562 " fill-opacity="1" fill-rule="nonzero"/></g></g></g></g></g></g></svg>